<!-- Generator: Adobe Illustrator 23.0.6, SVG Export Plug-In  -->
<svg version="1.1" xmlns="http://www.w3.org/2000/svg" xmlns:xlink="http://www.w3.org/1999/xlink" x="0px" y="0px"
	 width="45.253px" height="45.996px" viewBox="0 0 45.253 45.996" style="enable-background:new 0 0 45.253 45.996;"
	 xml:space="preserve">
<style type="text/css">
	.st0{fill:#93381C;}
</style>
<defs>
</defs>
<g>
	<path class="st0" d="M37.318,45.996c-12.45,0-24.868,0-37.318,0C0,33.468,0,20.968,0,8.42c9.779,0,19.568,0,29.42,0
		c-0.25,0.319-0.469,0.644-0.732,0.927c-0.806,0.867-1.629,1.719-2.446,2.576c-1.647,1.73-3.299,3.455-4.941,5.19
		c-1.262,1.332-2.514,2.674-3.769,4.013c-1.199,1.279-2.398,2.558-3.588,3.845c-0.1,0.108-0.185,0.28-0.186,0.423
		c-0.011,2.663-0.008,5.327-0.008,8.031c0.182,0.017,0.338,0.045,0.494,0.045c2.296,0.003,4.593,0.01,6.889-0.01
		c0.232-0.002,0.527-0.11,0.685-0.273c1.692-1.744,3.366-3.504,5.037-5.268c1.205-1.273,2.395-2.562,3.596-3.838
		c2.041-2.169,4.088-4.332,6.127-6.503c0.234-0.249,0.432-0.532,0.74-0.917C37.318,26.522,37.318,36.235,37.318,45.996z"/>
	<path class="st0" d="M41.815,7.849c-0.484,0.545-0.913,1.057-1.373,1.54c-1.113,1.17-2.248,2.318-3.359,3.49
		c-1.993,2.102-3.975,4.214-5.96,6.323c-1.258,1.337-2.512,2.677-3.77,4.013c-1.985,2.11-3.974,4.216-5.957,6.328
		c-0.151,0.161-0.26,0.363-0.411,0.525c-1.227,1.315-1.228,1.313-3.021,1.313c-0.717,0-1.433,0-2.247,0
		c0-0.871,0.074-1.73-0.018-2.571c-0.129-1.176,0.291-1.983,1.138-2.816c2.063-2.029,3.996-4.191,5.98-6.302
		c1.215-1.293,2.422-2.592,3.637-3.884c2.026-2.155,4.058-4.305,6.084-6.459c1.229-1.307,2.457-2.615,3.679-3.93
		c0.527-0.567,1.036-1.149,1.62-1.799C39.188,5.056,40.506,6.458,41.815,7.849z"/>
	<path class="st0" d="M43.308,6.385c-1.379-1.475-2.67-2.856-3.983-4.261c0.502-0.562,0.951-1.141,1.477-1.638
		c0.771-0.727,1.933-0.616,2.631,0.18c0.402,0.459,0.814,0.91,1.232,1.355c0.753,0.802,0.786,1.882,0.076,2.72
		c-0.222,0.263-0.44,0.53-0.666,0.789C43.847,5.794,43.611,6.049,43.308,6.385z"/>
</g>
</svg>