<!-- Generator: Adobe Illustrator 23.0.6, SVG Export Plug-In  -->
<svg version="1.1" xmlns="http://www.w3.org/2000/svg" xmlns:xlink="http://www.w3.org/1999/xlink" x="0px" y="0px"
	 width="41.626px" height="41.626px" viewBox="0 0 41.626 41.626" style="enable-background:new 0 0 41.626 41.626;"
	 xml:space="preserve">
<style type="text/css">
	.st0{fill:#93381C;}
</style>
<defs>
</defs>
<g>
	<path class="st0" d="M33.734,18.234c-2.662,0-5.993,0.683-8.61,1.349c-0.091-0.32-0.216-0.626-0.372-0.912
		c2.32-1.379,5.156-3.25,7.037-5.131c3.675-3.675,4.834-6.361,3.758-7.437c-1.076-1.076-3.763,0.083-7.437,3.758
		c-1.879,1.879-3.748,4.711-5.127,7.029c-0.286-0.159-0.592-0.286-0.913-0.38c0.665-2.614,1.345-5.937,1.345-8.594
		c0-5.197-1.08-7.916-2.602-7.916s-2.602,2.719-2.602,7.916c0,2.657,0.68,5.98,1.345,8.594c-0.32,0.093-0.626,0.221-0.913,0.38
		c-1.378-2.319-3.248-5.15-5.127-7.029C9.842,6.186,7.156,5.027,6.08,6.103C5.003,7.179,6.163,9.865,9.837,13.54
		c1.881,1.881,4.717,3.752,7.037,5.131c-0.156,0.286-0.281,0.592-0.372,0.912c-2.616-0.666-5.947-1.349-8.609-1.349
		C2.696,18.234,0,19.291,0,20.813c0,1.522,2.696,2.625,7.893,2.625c2.666,0,6.004-0.685,8.622-1.352
		c0.094,0.317,0.222,0.62,0.379,0.904c-2.324,1.38-5.17,3.257-7.057,5.143c-3.675,3.675-4.834,6.361-3.758,7.437
		c1.076,1.076,3.763-0.083,7.437-3.758c1.888-1.888,3.767-4.739,5.147-7.064c0.284,0.155,0.586,0.28,0.903,0.371
		c-0.668,2.62-1.356,5.966-1.356,8.637c0,5.197,1.08,7.869,2.602,7.869s2.602-2.673,2.602-7.869c0-2.672-0.688-6.017-1.356-8.637
		c0.317-0.092,0.619-0.216,0.903-0.371c1.38,2.325,3.259,5.175,5.147,7.064c3.675,3.675,6.361,4.834,7.437,3.758
		s-0.083-3.763-3.757-7.437c-1.887-1.886-4.733-3.763-7.057-5.143c0.158-0.284,0.286-0.586,0.379-0.904
		c2.618,0.667,5.956,1.352,8.622,1.352c5.197,0,7.893-1.08,7.893-2.602S38.93,18.234,33.734,18.234z"/>
	<path class="st0" d="M24.573,29.914c0,0,0.653,3.815,0.172,7.057c1.085,2.024,2.429,3.276,3.405,3.276
		c0.163,0,0.319-0.03,0.468-0.091c1.103-0.446,1.337-2.321,0.451-5.435C26.79,33.078,24.573,29.914,24.573,29.914z"/>
	<path class="st0" d="M17.05,11.737c0,0-0.72-3.793-0.169-7.035c-1.235-2.184-2.429-3.276-3.405-3.276
		c-0.163,0-0.319,0.03-0.468,0.091c-1.103,0.446-1.347,2.157-0.452,5.43C14.53,8.432,17.05,11.737,17.05,11.737z"/>
	<path class="st0" d="M11.736,24.596c0,0-3.838,0.569-7.057,0.172c-2.548,1.441-3.608,2.825-3.185,3.873
		c0.261,0.645,1.014,0.992,2.215,0.992c0.853,0,2.084-0.145,3.222-0.541C8.548,26.868,11.736,24.596,11.736,24.596z"/>
	<path class="st0" d="M29.893,17.076c0,0,3.789-0.676,7.054-0.172c2.548-1.441,3.609-2.825,3.185-3.873
		c-0.261-0.645-1.014-0.992-2.215-0.992c-0.853,0-1.988,0.159-3.22,0.541C33.016,14.789,29.893,17.076,29.893,17.076z"/>
	<path class="st0" d="M12.184,35.027c-0.782,2.819-0.553,4.547,0.487,4.989c0.156,0.066,0.319,0.099,0.49,0.099
		c1.032,0,2.295-1.219,3.673-3.625c-0.389-2.994,0.218-6.576,0.218-6.576S15.052,32.83,12.184,35.027z"/>
	<path class="st0" d="M29.433,6.678c0.78-2.961,0.566-4.578-0.478-5.022c-0.156-0.066-0.319-0.099-0.49-0.099
		c-1.032,0-2.435,1.327-3.673,3.625c0.419,2.127-0.222,6.602-0.222,6.602S26.729,8.595,29.433,6.678z"/>
	<path class="st0" d="M5.159,16.858c2.762-0.365,6.568,0.217,6.568,0.217s-3.458-2.667-5.111-4.869
		c-0.949-0.359-2.09-0.465-2.857-0.465c-1.14,0-1.862,0.332-2.126,0.953C1.168,13.79,2.559,15.481,5.159,16.858z"/>
	<path class="st0" d="M36.467,24.815c-2.351,0.52-6.577-0.218-6.577-0.218s3.218,2.38,5.112,4.868
		c1.111,0.392,2.096,0.467,2.865,0.467c1.14,0,1.862-0.332,2.126-0.953C40.458,27.882,39.237,26.37,36.467,24.815z"/>
</g>
</svg>