<!-- Generator: Adobe Illustrator 23.0.6, SVG Export Plug-In  -->
<svg version="1.1" xmlns="http://www.w3.org/2000/svg" xmlns:xlink="http://www.w3.org/1999/xlink" x="0px" y="0px"
	 width="20.697px" height="20.695px" viewBox="0 0 20.697 20.695" style="enable-background:new 0 0 20.697 20.695;"
	 xml:space="preserve">
<style type="text/css">
	.st0{fill:#FFFFFF;}
</style>
<defs>
</defs>
<g>
	<path class="st0" d="M13.747,15.958c-2.348,1.553-4.851,1.948-7.505,1.171c-1.982-0.58-3.581-1.736-4.741-3.458
		c-2.352-3.492-1.9-8.253,1.07-11.143c3.09-3.007,7.676-3.325,11.182-0.988c3.316,2.211,5.318,7.706,2.195,12.254
		c0.084,0.053,0.2,0.101,0.283,0.183c1.317,1.311,2.635,2.62,3.942,3.941c0.828,0.837,0.65,2.073-0.356,2.602
		c-0.612,0.321-1.328,0.194-1.881-0.353c-1.069-1.058-2.132-2.121-3.195-3.185C14.408,16.649,14.084,16.306,13.747,15.958z
		 M3.182,8.734c-0.01,3.086,2.452,5.568,5.547,5.593c3.072,0.025,5.606-2.499,5.604-5.581c-0.002-3.079-2.489-5.563-5.575-5.567
		C5.664,3.175,3.193,5.637,3.182,8.734z"/>
</g>
</svg>