<!-- Generator: Adobe Illustrator 23.0.6, SVG Export Plug-In  -->
<svg version="1.1" xmlns="http://www.w3.org/2000/svg" xmlns:xlink="http://www.w3.org/1999/xlink" x="0px" y="0px"
	 width="33.265px" height="33.306px" viewBox="0 0 33.265 33.306" style="enable-background:new 0 0 33.265 33.306;"
	 xml:space="preserve">
<style type="text/css">
	.st0{fill:#FFFFFF;}
</style>
<defs>
</defs>
<g>
	<path class="st0" d="M14.575,12.893L0.77,26.698C0.257,27.211,0,27.826,0,28.542c0,0.73,0.257,1.338,0.77,1.825l2.149,2.189
		c0.527,0.5,1.142,0.75,1.845,0.75c0.716,0,1.324-0.25,1.825-0.75l13.825-13.825c-1.324-0.527-2.496-1.301-3.517-2.321
		C15.876,15.39,15.102,14.217,14.575,12.893z M6.973,28.157c-0.257,0.257-0.561,0.385-0.912,0.385s-0.655-0.129-0.912-0.385
		c-0.257-0.257-0.385-0.561-0.385-0.912s0.128-0.656,0.385-0.913c0.257-0.257,0.561-0.385,0.912-0.385s0.656,0.128,0.912,0.385
		c0.257,0.257,0.385,0.561,0.385,0.913S7.23,27.901,6.973,28.157z"/>
	<path class="st0" d="M33.094,9.406c-0.115-0.135-0.274-0.203-0.476-0.203c-0.121,0-0.598,0.24-1.429,0.72
		c-0.831,0.48-1.747,1.027-2.747,1.642c-1,0.615-1.534,0.943-1.601,0.983l-3.913-2.169V5.838l5.939-3.426
		c0.216-0.149,0.324-0.338,0.324-0.568s-0.108-0.419-0.324-0.568c-0.595-0.406-1.321-0.72-2.179-0.943
		C25.829,0.111,25.008,0,24.224,0c-2.5,0-4.639,0.889-6.416,2.666c-1.778,1.777-2.666,3.916-2.666,6.416s0.889,4.639,2.666,6.416
		s3.916,2.666,6.416,2.666c1.906,0,3.653-0.565,5.24-1.693c1.588-1.128,2.699-2.598,3.335-4.409
		c0.311-0.905,0.466-1.622,0.466-2.149C33.266,9.71,33.208,9.541,33.094,9.406z"/>
</g>
</svg>