<!-- Generator: Adobe Illustrator 23.0.6, SVG Export Plug-In  -->
<svg version="1.1" xmlns="http://www.w3.org/2000/svg" xmlns:xlink="http://www.w3.org/1999/xlink" x="0px" y="0px"
	 width="48.691px" height="31.281px" viewBox="0 0 48.691 31.281" style="enable-background:new 0 0 48.691 31.281;"
	 xml:space="preserve">
<style type="text/css">
	.st0{fill:#FFFFFF;}
</style>
<defs>
</defs>
<g>
	<g>
		<path class="st0" d="M34.46,24.48C35.687,24.903,33.243,24.056,34.46,24.48L34.46,24.48z"/>
		<path class="st0" d="M34.46,24.198c-1.467-0.511-3.053-0.543-4.519-1.054c-0.445-0.152-1.325-0.337-1.51-0.847
			c-0.174-0.5-0.174-1.086-0.206-1.608c-0.022-0.413-0.033-0.826-0.033-1.238c0-0.272,0.695-0.847,0.847-1.097
			c0.587-0.978,0.641-2.292,0.75-3.4c0.945,0.261,1.065-1.488,1.228-2.021c0.12-0.369,0.847-2.911-0.282-2.564
			c0.272-0.478,0.38-1.065,0.456-1.597c0.217-1.391,0.304-2.911-0.12-4.269c-0.88-2.825-3.585-4.411-6.442-4.498
			c-2.901-0.098-5.812,1.293-6.898,4.106c-0.521,1.369-0.478,2.857-0.304,4.291c0.076,0.652,0.185,1.38,0.511,1.966
			c-1.054-0.315-0.489,1.923-0.369,2.314c0.174,0.554,0.326,2.542,1.315,2.271c0.087,0.88,0.185,1.782,0.424,2.64
			c0.163,0.576,0.5,1.065,0.891,1.51c0.179,0.204,0.283,0.46,0.28,0.731c-0.007,0.787-0.005,1.618-0.204,2.376
			c-0.217,0.826-2.032,1.173-2.759,1.325c-1.955,0.402-3.759,0.587-5.388,1.803c-1.901,1.401-2.89,3.585-2.89,5.942
			c9.049,0,18.099,0,27.148,0c1.021,0,2.032,0,3.053,0C39.435,28.077,37.501,25.252,34.46,24.198z"/>
		<path class="st0" d="M12.091,23.143c0.065-0.033,0.13-0.065,0.174-0.087c-0.033,0.011-0.065,0.033-0.087,0.043
			C12.146,23.111,12.124,23.122,12.091,23.143z"/>
		<path class="st0" d="M12.091,23.077c-0.369,0.185-0.815,0.413,0.087-0.043c0.326-0.163,0.261-0.13,0.087-0.043
			c0.739-0.348,1.532-0.435,2.325-0.511c0.304-0.033,0.445-0.239,0.217-0.532c-0.435-0.554-1.934-0.663-2.564-0.913
			c-0.391-0.152-0.5-0.293-0.532-0.728c-0.011-0.196-0.12-1.065,0.033-1.206c0.109-0.109,0.793-0.065,0.945-0.087
			c0.619-0.076,1.249-0.206,1.836-0.435c0.25-0.098,0.489-0.217,0.706-0.369c0.261-0.196-0.196-0.674-0.315-0.934
			c-0.369-0.815-0.532-1.706-0.587-2.596c-0.109-1.749,0.163-3.509-0.163-5.247c-0.489-2.662-2.542-3.998-5.16-3.998
			c-1.619,0-3.216,0.554-4.117,1.966c-0.999,1.554-0.945,3.487-0.891,5.258c0.033,1.01,0.076,2.032-0.065,3.042
			c-0.065,0.435-0.163,0.858-0.315,1.271c-0.12,0.315-0.728,1.097-0.489,1.26c0.902,0.641,2.423,0.858,3.509,0.771
			c0.033,0.532,0.13,1.217-0.065,1.716c-0.304,0.782-2.575,0.989-3.259,1.217C1.412,22.566,0,24.109,0,26.281
			c1.988,0,3.965,0,5.953,0c0.891,0,1.782,0,2.683,0c0.141,0,0.684-1.01,0.837-1.173C10.212,24.293,11.114,23.587,12.091,23.077z"/>
		<path class="st0" d="M45.334,21.914c-0.88-0.282-2.575-0.369-3.205-1.13c-0.315-0.38-0.141-1.347-0.109-1.803
			c0.478,0.043,0.999-0.033,1.488-0.098c0.445-0.065,0.88-0.152,1.304-0.304c0.196-0.076,0.391-0.152,0.576-0.261
			c0.424-0.25,0.228-0.293,0.011-0.663c-1.184-1.988-0.652-4.508-0.706-6.692c-0.043-1.814-0.521-3.802-2.173-4.823
			c-1.488-0.923-3.694-0.956-5.291-0.304c-4.606,1.847-1.89,7.952-3.466,11.45c-0.272,0.587-0.663,0.793,0.022,1.141
			c0.38,0.196,0.793,0.326,1.206,0.424c0.63,0.152,1.282,0.239,1.934,0.261c0.109,0,0.033,1.369,0,1.51
			c-0.12,0.532-1.282,0.684-1.716,0.804c-0.445,0.12-1.184,0.152-1.401,0.619c-0.326,0.695,1.076,0.521,1.423,0.587
			c1.119,0.206,2.108,0.826,2.977,1.532c0.652,0.532,1.532,1.249,1.771,2.118c2.901,0,5.812,0,8.713,0
			C48.669,24.098,47.246,22.544,45.334,21.914z"/>
	</g>
</g>
</svg>